<svg id="l_1" data-name="l 1" xmlns="http://www.w3.org/2000/svg" xmlns:xlink="http://www.w3.org/1999/xlink" viewBox="0 0 170 192">
  <defs>
    <style>
      .c1,.c16,.c19{fill:#fff;}.c1,.c18,.c19,.c26{fill-rule:evenodd;}.c2{fill:url(#a_17);}.c3{opacity:0.2;}.c10,.c11,.c12,.c13,.c14,.c15,.c4,.c5,.c6,.c7,.c8,.c9{fill:none;stroke-miterlimit:10;}.c4{stroke-width:1.14px;stroke:url(#a);}.c5{stroke-width:1.05px;stroke:url(#a-2);}.c6{stroke-width:0.97px;stroke:url(#a-3);}.c7{stroke-width:0.89px;stroke:url(#a-4);}.c8{stroke-width:0.81px;stroke:url(#a-5);}.c9{stroke-width:0.72px;stroke:url(#a-6);}.c10{stroke-width:0.64px;stroke:url(#a-7);}.c11{stroke-width:0.56px;stroke:url(#a-8);}.c12{stroke-width:0.48px;stroke:url(#a-9);}.c13{stroke-width:0.39px;stroke:url(#a-10);}.c14{stroke-width:0.31px;stroke:url(#a-11);}.c15{stroke-width:0.23px;stroke:url(#a-12);}.c16{stroke:#979797;stroke-width:0.09px;}.c17{mask:url(#mask);}.c18{fill:#2c2c2c;}.c19{opacity:0.5;}.c20,.c21{isolation:isolate;}.c21{font-size:2.71px;letter-spacing:0.09em;}.c21,.c28{font-family:PingFangSC-Regular-GBpc-EUC-H, PingFang SC;}.c22{fill:url(#a_44);}.c23{font-size:12px;font-family:PingFangSC-Semibold-GBpc-EUC-H, PingFang SC;letter-spacing:0.07em;}.c24{font-size:6px;letter-spacing:0.08em;}.c24,.c25{fill:gray;font-family:PingFangSC-Light-GBpc-EUC-H, PingFang SC;}.c25{font-size:3.4px;letter-spacing:0.07em;}.c26{fill:#ff0;opacity:0.8;}.c27{font-size:8.63px;font-family:PingFangSC-Medium-GBpc-EUC-H, PingFang SC;letter-spacing:0.08em;}.c28{font-size:5px;letter-spacing:0.07em;}.c29{fill:#00d600;}
    </style>
    <linearGradient id="a_17" x1="85.12" y1="17.17" x2="85.13" y2="180.08" gradientUnits="userSpaceOnUse">
      <stop offset="0" stop-color="#d3d9f7"/>
      <stop offset="1" stop-color="#dff8fd"/>
    </linearGradient>
    <linearGradient id="a" x1="-0.19" y1="100.25" x2="170.44" y2="100.25" gradientUnits="userSpaceOnUse">
      <stop offset="0" stop-color="#fff" stop-opacity="0"/>
      <stop offset="1" stop-color="#00d600"/>
    </linearGradient>
    <linearGradient id="a-2" x1="6" y1="100.25" x2="164.25" y2="100.25" xlink:href="#a"/>
    <linearGradient id="a-3" x1="12.2" y1="100.25" x2="158.05" y2="100.25" xlink:href="#a"/>
    <linearGradient id="a-4" x1="18.39" y1="100.25" x2="151.86" y2="100.25" xlink:href="#a"/>
    <linearGradient id="a-5" x1="24.58" y1="100.25" x2="145.67" y2="100.25" xlink:href="#a"/>
    <linearGradient id="a-6" x1="30.78" y1="100.25" x2="139.47" y2="100.25" xlink:href="#a"/>
    <linearGradient id="a-7" x1="36.97" y1="100.25" x2="133.28" y2="100.25" xlink:href="#a"/>
    <linearGradient id="a-8" x1="43.17" y1="100.25" x2="127.08" y2="100.25" xlink:href="#a"/>
    <linearGradient id="a-9" x1="49.36" y1="100.25" x2="120.89" y2="100.25" xlink:href="#a"/>
    <linearGradient id="a-10" x1="55.56" y1="100.25" x2="114.69" y2="100.25" xlink:href="#a"/>
    <linearGradient id="a-11" x1="61.75" y1="100.25" x2="108.5" y2="100.25" xlink:href="#a"/>
    <linearGradient id="a-12" x1="67.95" y1="100.25" x2="102.3" y2="100.25" xlink:href="#a"/>
    <mask id="mask" x="18.61" y="131.58" width="16.56" height="16.56" maskUnits="userSpaceOnUse">
      <g>
        <polygon id="path-1" class="c1" points="18.61 131.58 35.17 131.58 35.17 148.14 18.61 148.14 18.61 131.58"/>
      </g>
    </mask>
    <linearGradient id="a_44" x1="-399.35" y1="-508.52" x2="-389" y2="-508.52" gradientTransform="translate(-491.18 437.18) rotate(90)" gradientUnits="userSpaceOnUse">
      <stop offset="0" stop-color="#d4dcf8"/>
      <stop offset="1" stop-color="#999"/>
    </linearGradient>
  </defs>
  <rect class="c2" x="0.13" width="170" height="192"/>
  <g class="c3">
    <circle class="c4" cx="85.13" cy="100.25" r="84.75"/>
    <circle class="c5" cx="85.13" cy="100.25" r="78.6"/>
    <circle class="c6" cx="85.13" cy="100.25" r="72.44"/>
    <circle class="c7" cx="85.13" cy="100.25" r="66.29"/>
    <circle class="c8" cx="85.13" cy="100.25" r="60.14"/>
    <circle class="c9" cx="85.13" cy="100.25" r="53.98"/>
    <circle class="c10" cx="85.13" cy="100.25" r="47.83"/>
    <circle class="c11" cx="85.13" cy="100.25" r="41.68"/>
    <circle class="c12" cx="85.13" cy="100.25" r="35.52"/>
    <circle class="c13" cx="85.13" cy="100.25" r="29.37"/>
    <circle class="c14" cx="85.13" cy="100.25" r="23.22"/>
    <circle class="c15" cx="85.13" cy="100.25" r="17.06"/>
  </g>
  <rect class="c16" x="14.67" y="128.37" width="69.68" height="22.99"/>
  <g>
    <g class="c17">
      <path class="c18" d="M27.52,134.79v1.5c1.47.19,2.51,1,2.56,2.1v.09H28.81c0-.49-.72-.95-1.95-.95s-1.95.39-1.95.95.61.93,1.83,1h.12c1.92,0,3.23.86,3.23,2.23s-1.05,2-2.57,2.19v1.52H26.25v-1.52c-1.5-.17-2.56-1-2.62-2.11v-.08h1.28c0,.49.72,1,1.95,1s1.95-.39,1.95-1-.61-.93-1.83-1h-.24c-1.86,0-3.11-.9-3.11-2.23s1.08-2,2.62-2.2v-1.49Zm-.63-1.93a7,7,0,1,0,7,7,7,7,0,0,0-7-7Zm0-1.28a8.28,8.28,0,1,1-8.28,8.28,8.28,8.28,0,0,1,8.28-8.28Z"/>
    </g>
  </g>
  <path data-name="g" class="c19" d="M16,79.42H32.07a.87.87,0,0,1,.93.8V84a.88.88,0,0,1-.93.8H16a.88.88,0,0,1-.93-.8V80.22A.87.87,0,0,1,16,79.42Z"/>
  <g class="c20">
    <text class="c21" transform="translate(17.61 83.08)">engineer</text>
  </g>
  <path data-name="g" class="c19" d="M37,79.42h16a.87.87,0,0,1,.93.8V84a.88.88,0,0,1-.93.8H37a.88.88,0,0,1-.93-.8V80.22A.87.87,0,0,1,37,79.42Z"/>
  <g  data-name="back-end" class="c20">
    <text class="c21" transform="translate(38.61 83.08)">engineer</text>
  </g>
  <path data-name="g" class="c19" d="M58,79.42h16a.87.87,0,0,1,.93.8V84a.88.88,0,0,1-.93.8H58a.88.88,0,0,1-.93-.8V80.22A.87.87,0,0,1,58,79.42Z"/>
  <g data-name="back-end" class="c20">
    <text class="c21" transform="translate(59.61 83.08)">engineer</text>
  </g>
  <path class="c22" d="M17.34,43.35l-1.56-2.23-.53.76,2.09,3,2.09-3-.53-.76Zm0-3.29-1.56-2.23-.53.76,2.09,3,2.09-3-.53-.76Zm0,6.59-1.56-2.24-.53.76,2.09,3,2.09-2.94-.53-.82Z"/>
  <text class="c23" transform="translate(14.49 74.47)">Project title</text>
  <text class="c24" transform="translate(14.95 99.51)">Project content descriptionProject <tspan x="0" y="8">content descriptionProject content </tspan><tspan x="0" y="16">descriptionProject content description</tspan></text>
  <text class="c25" transform="translate(15 126.77)">Task budget：</text>
  <path data-name="g" class="c26" d="M16,86.42H32.94a.9.9,0,0,1,1,.8V91a.91.91,0,0,1-1,.8H16a.91.91,0,0,1-1-.8V87.22A.9.9,0,0,1,16,86.42Z"/>
  <g data-name="back-end" class="c20">
    <text class="c21" transform="translate(17.31 90.08)">back-end</text>
  </g>
  <path data-name="g" class="c26" d="M38,86.42H54.94a.9.9,0,0,1,1,.8V91a.91.91,0,0,1-1,.8H38a.91.91,0,0,1-1-.8V87.22A.9.9,0,0,1,38,86.42Z"/>
  <g data-name="back-end" class="c20">
    <text class="c21" transform="translate(39.31 90.08)">back-end</text>
  </g>
  <text class="c25" transform="translate(15 169.77)">Release time release time release time release time release time</text>
  <text class="c27" transform="translate(41 143.66)">200 ETH</text>
  <text class="c28" transform="translate(15.13 20.86)">Task</text>
  <text class="c28" transform="translate(32.13 20.86)">#001</text>
  <circle class="c29" cx="96.5" cy="71.5" r="1.5"/>
</svg>
