<svg id="l1" data-name="L1" xmlns="http://www.w3.org/2000/svg" xmlns:xlink="http://www.w3.org/1999/xlink" viewBox="0 0 470 268">
  <defs>
    <linearGradient id="a4" x1="1.42" y1="134" x2="468.44" y2="134" gradientUnits="userSpaceOnUse">
      <stop offset="0" stop-color="#fee7b9"/>
      <stop offset="1" stop-color="#c91d3b"/>
    </linearGradient>
    <linearGradient id="b3" x1="298.21" y1="218.48" x2="329.4" y2="218.48" gradientUnits="userSpaceOnUse">
      <stop offset=".01" stop-color="#da0035"/>
      <stop offset=".99" stop-color="#ff766e"/>
      <stop offset="1" stop-color="#ff776f"/>
    </linearGradient>
    <linearGradient id="b4" x1="298.21" y1="168.51" x2="457.31" y2="168.51" gradientUnits="userSpaceOnUse">
      <stop offset=".01" stop-color="#da0035"/>
      <stop offset=".52" stop-color="#ed7575"/>
      <stop offset="1" stop-color="#ffe6b2"/>
    </linearGradient>
    <linearGradient id="b6" x1="292.21" y1="224.48" x2="323.4" y2="224.48" xlink:href="#b3"/>
    <linearGradient id="b5" x1="292.21" y1="174.51" x2="451.31" y2="174.51" xlink:href="#b4"/>
    <clipPath id="clip-path">
      <path d="M0 0h410.59A46.41 46.41 0 0 1 457 46.41v161.18A46.41 46.41 0 0 1 410.59 254H0V0Z" style="fill:none"/>
    </clipPath>
    <style>
      .c6,.c7{fill:#fff;font-size:9.04px}.c6{font-family:PingFangSC-Light,PingFang SC}.c7{font-family:PingFangSC-Medium,PingFang SC}.c11{clip-path:url(#clip-path)}
    </style>
  </defs>
  <path style="fill:url(#a4)" d="M-.01 0h469.99v268H-.01z"/>
  <path d="M410.59 254H0V0h410.59A46.41 46.41 0 0 1 457 46.41v161.18A46.41 46.41 0 0 1 410.59 254Z" style="fill:#1f1e2e"/>
  <text transform="rotate(-90 126.725 93.275)" style="font-family:PingFangSC-Semibold,PingFang SC;fill:#fff;opacity:.2;font-size:41.17px;letter-spacing:.05em">BUILDER</text>
  <text transform="translate(11.97 71.69)" style="font-size:28.52px;font-family:PingFangSC-Semibold,PingFang SC;fill:#fff">Dao operation and maintenance</text>
  <text class="c6" transform="translate(36 132.92)">Skill:</text>
  <text class="c7" transform="translate(36 146.48)">Development</text>
  <text class="c7" transform="translate(94 146.48)">Javascript</text>
  <text class="c7" transform="translate(152 146.48)">iOS</text>
  <text class="c6" transform="translate(36 164.3)">Token ID:</text>
  <text class="c7" transform="translate(36 176.96)">1234</text>
  <text class="c6" transform="translate(36 101.95)">Hash:</text>
  <text class="c7" transform="translate(36 115.6)">QmZStS3CuSA7SRvSpJgdiWVyjTa9yD5bxTNerTL2HUcdck</text>
  <text class="c6" transform="translate(36 195.23)">Amount:</text>
  <text class="c7" transform="translate(36 207.89)">≈0.22 ETH</text>
  <g style="opacity:.5">
    <path d="M328.84 236.5a17 17 0 0 1-17 17h-13.07v-53.07a17 17 0 0 1 17-17h13.08Z" style="stroke:url(#b3);stroke-miterlimit:10;stroke-width:1.12px;fill:none"/>
    <path d="M373.76 83.52h-57.85a17.14 17.14 0 0 0-17.14 17.14v48.87h95.03a12.57 12.57 0 0 1 12.57 12.57v8.8a12.57 12.57 0 0 1-12.57 12.57h-31v70.06h11a83 83 0 0 0 83-83v-4a83 83 0 0 0-83.04-83.01Z" style="stroke:url(#b4);stroke-miterlimit:10;stroke-width:1.12px;fill:none"/>
  </g>
  <path d="M322.84 242.5a17 17 0 0 1-17 17h-13.07v-53.07a17 17 0 0 1 17-17h13.08Z" style="stroke:url(#b6);stroke-miterlimit:10;stroke-width:1.12px;fill:none" class="c11"/>
  <path d="M367.76 89.52h-57.85a17.14 17.14 0 0 0-17.14 17.14v48.87h95.03a12.57 12.57 0 0 1 12.57 12.57v8.8a12.57 12.57 0 0 1-12.57 12.57h-31v70.06h11a83 83 0 0 0 83-83v-4a83 83 0 0 0-83.04-83.01Z" style="stroke:url(#b5);stroke-miterlimit:10;stroke-width:1.12px;fill:none" class="c11"/>
  <text class="c6" transform="translate(35.91 240.88)">GMT+8 2022-02-02 11:40:23</text>
</svg>
