<svg id="l1" data-name="L1" xmlns="http://www.w3.org/2000/svg" xmlns:xlink="http://www.w3.org/1999/xlink" viewBox="0 0 470 268">
  <defs>
    <style>
      .c1,.c10,.c12,.c13,.c9{fill:none;}.c2{fill:url(#a4);}.c3{fill:#1f1e2e;}.c4{opacity:0.2;font-size:41.17px;letter-spacing:0.05em;}.c4,.c5,.c6,.c7{fill:#fff;}.c4,.c5{font-family:PingFangSC-Semibold-GBpc-EUC-H, PingFang SC;}.c5{font-size:28.52px;}.c6,.c7{font-size:9.04px;}.c6{font-family:PingFangSC-Light-GBpc-EUC-H, PingFang SC;}.c7{font-family:PingFangSC-Medium-GBpc-EUC-H, PingFang SC;}.c8{opacity:0.5;}.c10,.c12,.c13,.c9{stroke-miterlimit:10;stroke-width:1.12px;}.c9{stroke:url(#b3);}.c10{stroke:url(#b4);}.c11{clip-path:url(#clip-path);}.c12{stroke:url(#b6);}.c13{stroke:url(#b5);}
    </style>
    <linearGradient id="a4" x1="1.42" y1="134" x2="468.44" y2="134" gradientUnits="userSpaceOnUse">
      <stop offset="0" stop-color="#fee7b9"/>
      <stop offset="1" stop-color="#c91d3b"/>
    </linearGradient>
    <linearGradient id="b3" x1="298.21" y1="218.48" x2="329.4" y2="218.48" gradientUnits="userSpaceOnUse">
      <stop offset="0.01" stop-color="#da0035"/>
      <stop offset="0.99" stop-color="#ff766e"/>
      <stop offset="1" stop-color="#ff776f"/>
    </linearGradient>
    <linearGradient id="b4" x1="298.21" y1="168.51" x2="457.31" y2="168.51" gradientUnits="userSpaceOnUse">
      <stop offset="0.01" stop-color="#da0035"/>
      <stop offset="0.52" stop-color="#ed7575"/>
      <stop offset="1" stop-color="#ffe6b2"/>
    </linearGradient>
    <clipPath id="clip-path">
      <path class="c1" d="M0,0H410.59A46.41,46.41,0,0,1,457,46.41V207.59A46.41,46.41,0,0,1,410.59,254H0a0,0,0,0,1,0,0V0A0,0,0,0,1,0,0Z"/>
    </clipPath>
    <linearGradient id="b6" x1="292.21" y1="224.48" x2="323.4" y2="224.48" xlink:href="#b3"/>
    <linearGradient id="b5" x1="292.21" y1="174.51" x2="451.31" y2="174.51" xlink:href="#b4"/>
  </defs>
  <title>Detask-NFT-Builder</title>
  <rect class="c2" x="-0.01" width="469.99" height="268"/>
  <path class="c3" d="M410.59,254H0V0H410.59A46.41,46.41,0,0,1,457,46.41V207.59A46.41,46.41,0,0,1,410.59,254Z"/>
  <text class="c4" transform="translate(33.45 217.25) rotate(-90)">BUILDER</text>
  <text class="c5" transform="translate(11.97 71.69)">Dao operation and maintenance</text>
  <text class="c6" transform="translate(36.32 132.92)">Skill :</text>
  <text class="c7" transform="translate(35.42 146.48)">Solidity</text>
  <text class="c7" transform="translate(82.04 146.48)">Javascript</text>
  <text class="c7" transform="translate(141.38 146.48)">iOS</text>
  <text class="c6" transform="translate(36.32 164.3)">Token ID :</text>
  <text class="c7" transform="translate(35.42 176.96)">1234</text>
  <text class="c6" transform="translate(35.79 101.95)">Hash :</text>
  <text class="c7" transform="translate(35.42 115.6)">QmZStS3CuSA7SRvSpJgdiWVyjTa9yD5bxTNerTL2HUcdck</text>
  <text class="c6" transform="translate(35.79 195.23)">Amount:</text>
  <text class="c7" transform="translate(35.42 207.89)">≈0.22 ETH</text>
  <g class="c8">
    <path class="c9" d="M328.84,236.5a17,17,0,0,1-17,17H298.77V200.43a17,17,0,0,1,17-17h13.08Z"/>
    <path class="c10" d="M373.76,83.52H315.91a17.14,17.14,0,0,0-17.14,17.14v48.87l.22,0H393.8a12.57,12.57,0,0,1,12.57,12.57v8.8a12.57,12.57,0,0,1-12.57,12.57h-31v70.06h11a83,83,0,0,0,83-83v-4A83,83,0,0,0,373.76,83.52Z"/>
  </g>
  <g class="c11">
    <path class="c12" d="M322.84,242.5a17,17,0,0,1-17,17H292.77V206.43a17,17,0,0,1,17-17h13.08Z"/>
  </g>
  <g class="c11">
    <path class="c13" d="M367.76,89.52H309.91a17.14,17.14,0,0,0-17.14,17.14v48.87l.22,0H387.8a12.57,12.57,0,0,1,12.57,12.57v8.8a12.57,12.57,0,0,1-12.57,12.57h-31v70.06h11a83,83,0,0,0,83-83v-4A83,83,0,0,0,367.76,89.52Z"/>
  </g>
  <text class="c6" transform="translate(35.91 240.88)">GMT+8 2022-02-02 11:40:23</text>
</svg>
