<svg id="l_1" data-name="l 1" xmlns="http://www.w3.org/2000/svg" viewBox="0 0 147.98 99.64">
  <defs>
    <linearGradient id="a" x1="1074.54" y1="1581.87" x2="1074.55" y2="1456.31" gradientTransform="matrix(0 -1 -1 0 1595.1 1124.36)" gradientUnits="userSpaceOnUse">
      <stop offset="0" stop-color="#d3d9f7"/>
      <stop offset="1" stop-color="#dff8fd"/>
    </linearGradient>
    <linearGradient id="d1" x1="-669.05" y1="1241.1" x2="-658.71" y2="1241.1" gradientTransform="matrix(0 1 1 0 -1228.87 694.87)" gradientUnits="userSpaceOnUse">
      <stop offset="0" stop-color="#d4dcf8"/>
      <stop offset="1" stop-color="#999"/>
    </linearGradient>
    <style>
      .b1,.b2,.b3{isolation:isolate}.b1{font-size:4px}.b1,.b3{fill:#1f1e2e;font-family:PingFangSC-Medium,PingFang SC}.b1{letter-spacing:.09em}.b2,.b3{letter-spacing:.07em}.b2{font-size:3.4px;font-family:PingFangSC-Light,PingFang SC;fill:gray}.b3{font-size:5px}
    </style>
  </defs>
  <path fill="url(#a)" d="M0 99.64V0h148v99.64Z"/>
  <text class="b3" transform="translate(10 17.25)">Detask.xyz</text>
  <text class="b3" transform="translate(43 17.25)">#1</text>
  <path d="m12.23 31.35-1.56-2.23-.53.76 2.09 3 2.09-3-.53-.76Zm0-3.29-1.56-2.23-.53.76 2.09 3 2.09-3-.53-.76Zm0 6.59-1.56-2.24-.53.76 2.09 3 2.09-2.94-.53-.82Z" style="fill:url(#d1)"/>
  <text transform="translate(10 54.91)" style="font-size:12px;font-family:PingFangSC-Semibold,PingFang SC;letter-spacing:-.05em;fill:#1f1e2e">New Task Dao operation</text>
  <text class="b2" transform="translate(10 65.07)">Skill:</text>
  <text class="b1" transform="translate(10 70.25)">Development</text>
  <text class="b1" transform="translate(45 70.25)">Frontend</text>
  <text class="b1" transform="translate(80 70.25)">Design</text>
  <text class="b2" transform="translate(10 82.68)">Task budget:</text>
  <text transform="translate(10.13 87.72)" style="letter-spacing:.08em;font-family:PingFangSC-Medium,PingFang SC;fill:#1f1e2e;font-size:4px;isolation:isolate">&lt;0.001 USD</text>
  <text transform="translate(87.53 87.86)" style="font-size:3.4px;font-family:PingFangSC-Light,PingFang SC;letter-spacing:.07em;fill:#1f1e2e;isolation:isolate">2022-12-14T17:54:00Z</text>
</svg>
